<svg width="18" height="18" viewBox="0 0 18 18" fill="none" xmlns="http://www.w3.org/2000/svg">
<path fill-rule="evenodd" clip-rule="evenodd" d="M9.00033 17.3332C5.07195 17.3332 3.10777 17.3332 1.88738 16.1128C0.666992 14.8924 0.666992 12.9282 0.666992 8.99984C0.666992 5.07147 0.666992 3.10728 1.88738 1.88689C3.10777 0.666504 5.07195 0.666504 9.00033 0.666504C12.9287 0.666504 14.8929 0.666504 16.1133 1.88689C17.3337 3.10728 17.3337 5.07147 17.3337 8.99984C17.3337 12.9282 17.3337 14.8924 16.1133 16.1128C14.8929 17.3332 12.9287 17.3332 9.00033 17.3332ZM12.3589 6.47456C12.603 6.71864 12.603 7.11437 12.3589 7.35845L8.19227 11.5251C7.94819 11.7692 7.55246 11.7692 7.30838 11.5251L5.64172 9.85845C5.39764 9.61437 5.39764 9.21864 5.64172 8.97456C5.88579 8.73048 6.28152 8.73048 6.5256 8.97456L7.75033 10.1993L11.4751 6.47456C11.7191 6.23048 12.1149 6.23048 12.3589 6.47456Z" fill="#E4A90F"/>
</svg>
