<svg width="16" height="15" viewBox="0 0 16 15" fill="none" xmlns="http://www.w3.org/2000/svg">
<path fill-rule="evenodd" clip-rule="evenodd" d="M7.66671 1.33334C4.44505 1.33334 1.83337 3.94501 1.83337 7.16667C1.83337 10.3883 4.44505 13 7.66671 13C10.8884 13 13.5 10.3883 13.5 7.16667C13.5 3.94501 10.8884 1.33334 7.66671 1.33334ZM0.833374 7.16667C0.833374 3.39272 3.89276 0.333336 7.66671 0.333336C11.4407 0.333336 14.5 3.39272 14.5 7.16667C14.5 8.87368 13.8741 10.4345 12.8393 11.6321L15.0203 13.8131C15.2155 14.0084 15.2155 14.325 15.0203 14.5202C14.825 14.7155 14.5084 14.7155 14.3132 14.5202L12.1322 12.3392C10.9345 13.3741 9.37372 14 7.66671 14C3.89276 14 0.833374 10.9406 0.833374 7.16667Z" fill="#E4A90F"/>
</svg>
