<svg width="44" height="44" viewBox="0 0 44 44" fill="none" xmlns="http://www.w3.org/2000/svg">
<g opacity="0.5">
<path fill-rule="evenodd" clip-rule="evenodd" d="M8.1228 9.90878C8.617 9.3322 9.48504 9.26543 10.0616 9.75964L22.0001 19.9926L33.9386 9.75964C34.5152 9.26543 35.3832 9.3322 35.8774 9.90878C36.3716 10.4853 36.3049 11.3534 35.7283 11.8476L22.8949 22.8476C22.38 23.289 21.6202 23.289 21.1053 22.8476L8.27193 11.8476C7.69536 11.3534 7.62859 10.4853 8.1228 9.90878Z" fill="#EAE1E1"/>
<path fill-rule="evenodd" clip-rule="evenodd" d="M8.1228 19.3374C8.617 18.7608 9.48504 18.694 10.0616 19.1882L22.0001 29.4212L33.9386 19.1882C34.5152 18.694 35.3832 18.7608 35.8774 19.3374C36.3716 19.9139 36.3049 20.782 35.7283 21.2762L22.8949 32.2762C22.38 32.7175 21.6202 32.7175 21.1053 32.2762L8.27193 21.2762C7.69536 20.782 7.62859 19.9139 8.1228 19.3374Z" fill="#EAE1E1"/>
</g>
</svg>
