<svg width="69" height="45" viewBox="0 0 69 45" fill="none" xmlns="http://www.w3.org/2000/svg">
<path d="M11.2372 35.1037L8.33183 41.217C7.92831 42.0644 7.28267 42.7504 6.39493 43.275C5.54753 43.7995 4.74049 44.0618 3.9738 44.0618C2.8843 44.0618 1.9562 43.739 1.18951 43.0934C0.463175 42.4477 0.100006 41.6205 0.100006 40.6117C0.100006 40.0064 0.241238 39.4213 0.523703 38.8564L17.1689 4.41591C17.8146 3.08429 18.5409 2.07549 19.3479 1.38951C20.1953 0.663168 21.2848 0.299999 22.6165 0.299999C23.9884 0.299999 24.9972 0.663168 25.6429 1.38951C26.2885 2.07549 26.7525 3.08429 27.035 4.41591L33.9957 38.8564V39.5222C33.9957 40.8538 33.5115 41.9433 32.5431 42.7907C31.615 43.6381 30.4649 44.0618 29.093 44.0618C28.2859 44.0618 27.4991 43.7995 26.7324 43.275C25.9657 42.71 25.5016 42.024 25.3402 41.217L24.0691 35.1037H11.2372ZM22.8586 28.2035L21.2243 17.8531C21.0629 16.9251 20.9822 14.9478 20.9822 11.9214C20.3366 14.4636 19.6909 16.4408 19.0453 17.8531L14.3846 28.2035H22.8586Z" fill="url(#paint0_linear_11_3244)"/>
<path d="M51.6014 8.53182L47.1828 40.1275C47.0214 41.1766 46.4565 42.0846 45.488 42.8512C44.5599 43.6179 43.531 44.0013 42.4011 44.0013C41.2309 44.0013 40.2826 43.6179 39.5563 42.8512C38.8299 42.0846 38.5475 41.1766 38.7089 40.1275L43.6117 5.02119C43.7731 3.97204 44.3582 3.02376 45.367 2.17637C46.3758 1.28863 47.5056 0.844752 48.7566 0.844752H65.2202C66.3097 0.844752 67.1974 1.18775 67.8834 1.87373C68.5694 2.51936 68.9124 3.3264 68.9124 4.29486C68.9124 5.46507 68.4282 6.47387 67.4597 7.32126C66.5316 8.1283 65.422 8.53182 64.1307 8.53182H51.6014Z" fill="url(#paint1_linear_11_3244)"/>
<defs>
<linearGradient id="paint0_linear_11_3244" x1="34.5062" y1="0.299999" x2="34.5062" y2="44.0618" gradientUnits="userSpaceOnUse">
<stop offset="0.078125" stop-color="#EF544A"/>
<stop offset="0.421875" stop-color="#C6251A"/>
<stop offset="0.421975" stop-color="#C6251A"/>
</linearGradient>
<linearGradient id="paint1_linear_11_3244" x1="34.5062" y1="0.299999" x2="34.5062" y2="44.0618" gradientUnits="userSpaceOnUse">
<stop offset="0.078125" stop-color="#EF544A"/>
<stop offset="0.421875" stop-color="#C6251A"/>
<stop offset="0.421975" stop-color="#C6251A"/>
</linearGradient>
</defs>
</svg>
