<svg width="32" height="32" viewBox="0 0 32 32" fill="none" xmlns="http://www.w3.org/2000/svg">
<path d="M10.1823 7.04889C9.31713 6.18373 7.91442 6.18373 7.04926 7.04889C6.1841 7.91406 6.1841 9.31676 7.04926 10.1819L12.8674 16.0001L7.04933 21.8181C6.18416 22.6833 6.18416 24.086 7.04933 24.9512C7.91449 25.8163 9.31719 25.8163 10.1824 24.9512L16.0004 19.1331L21.8184 24.9511C22.6836 25.8163 24.0863 25.8163 24.9515 24.9511C25.8166 24.0859 25.8166 22.6832 24.9515 21.8181L19.1334 16.0001L24.9515 10.182C25.8167 9.31682 25.8167 7.91412 24.9515 7.04895C24.0864 6.18379 22.6837 6.18379 21.8185 7.04895L16.0004 12.867L10.1823 7.04889Z" fill="#EAE1E1"/>
</svg>
